<mxfile host="app.diagrams.net" modified="2023-06-04T08:34:43.476Z" agent="Mozilla/5.0 (Windows NT 10.0; Win64; x64) AppleWebKit/537.36 (KHTML, like Gecko) Chrome/113.0.0.0 Safari/537.36" etag="gkUY0IYJMungABqiRg7H" version="21.3.2" type="device">
  <diagram name="Page-1" id="SPxzSua54Bxz1yBXc5dN">
    <mxGraphModel dx="989" dy="536" grid="1" gridSize="10" guides="1" tooltips="1" connect="1" arrows="1" fold="1" page="1" pageScale="1" pageWidth="827" pageHeight="1169" math="0" shadow="0">
      <root>
        <mxCell id="0" />
        <mxCell id="1" parent="0" />
        <mxCell id="UyUfyXNW2C0ylXCqxiXc-25" style="edgeStyle=orthogonalEdgeStyle;curved=1;rounded=0;orthogonalLoop=1;jettySize=auto;html=1;entryX=0.5;entryY=0;entryDx=0;entryDy=0;fontSize=12;startSize=8;endSize=8;" edge="1" parent="1" source="UyUfyXNW2C0ylXCqxiXc-1" target="UyUfyXNW2C0ylXCqxiXc-96">
          <mxGeometry relative="1" as="geometry" />
        </mxCell>
        <mxCell id="UyUfyXNW2C0ylXCqxiXc-47" value="Https" style="edgeLabel;html=1;align=center;verticalAlign=middle;resizable=0;points=[];fontSize=16;" vertex="1" connectable="0" parent="UyUfyXNW2C0ylXCqxiXc-25">
          <mxGeometry x="-0.3793" y="1" relative="1" as="geometry">
            <mxPoint x="-1" y="-21" as="offset" />
          </mxGeometry>
        </mxCell>
        <mxCell id="UyUfyXNW2C0ylXCqxiXc-1" value="Internet" style="ellipse;shape=cloud;whiteSpace=wrap;html=1;" vertex="1" parent="1">
          <mxGeometry x="600" y="160" width="120" height="80" as="geometry" />
        </mxCell>
        <mxCell id="UyUfyXNW2C0ylXCqxiXc-26" style="edgeStyle=orthogonalEdgeStyle;curved=1;rounded=0;orthogonalLoop=1;jettySize=auto;html=1;fontSize=12;startSize=8;endSize=8;endArrow=classic;endFill=1;shadow=0;exitX=0.445;exitY=-0.002;exitDx=0;exitDy=0;exitPerimeter=0;" edge="1" parent="1" source="UyUfyXNW2C0ylXCqxiXc-4" target="UyUfyXNW2C0ylXCqxiXc-96">
          <mxGeometry relative="1" as="geometry">
            <mxPoint x="500" y="240" as="targetPoint" />
            <Array as="points">
              <mxPoint x="628" y="250" />
              <mxPoint x="480" y="250" />
              <mxPoint x="480" y="199" />
            </Array>
          </mxGeometry>
        </mxCell>
        <mxCell id="UyUfyXNW2C0ylXCqxiXc-45" value="Https" style="edgeLabel;html=1;align=center;verticalAlign=middle;resizable=0;points=[];fontSize=16;" vertex="1" connectable="0" parent="UyUfyXNW2C0ylXCqxiXc-26">
          <mxGeometry x="0.2064" y="-5" relative="1" as="geometry">
            <mxPoint x="2" y="-15" as="offset" />
          </mxGeometry>
        </mxCell>
        <mxCell id="UyUfyXNW2C0ylXCqxiXc-4" value="" style="swimlane;startSize=0;" vertex="1" parent="1">
          <mxGeometry x="490" y="260" width="310" height="300" as="geometry">
            <mxRectangle x="460" y="260" width="50" height="40" as="alternateBounds" />
          </mxGeometry>
        </mxCell>
        <mxCell id="UyUfyXNW2C0ylXCqxiXc-5" value="Ngnix" style="rounded=1;whiteSpace=wrap;html=1;" vertex="1" parent="UyUfyXNW2C0ylXCqxiXc-4">
          <mxGeometry x="160" y="30" width="120" height="60" as="geometry" />
        </mxCell>
        <mxCell id="UyUfyXNW2C0ylXCqxiXc-7" value="Clever-Party-Thrower Api" style="rounded=1;whiteSpace=wrap;html=1;" vertex="1" parent="UyUfyXNW2C0ylXCqxiXc-4">
          <mxGeometry x="160" y="110" width="120" height="60" as="geometry" />
        </mxCell>
        <mxCell id="UyUfyXNW2C0ylXCqxiXc-15" style="edgeStyle=orthogonalEdgeStyle;rounded=0;orthogonalLoop=1;jettySize=auto;html=1;" edge="1" parent="UyUfyXNW2C0ylXCqxiXc-4" source="UyUfyXNW2C0ylXCqxiXc-6" target="UyUfyXNW2C0ylXCqxiXc-7">
          <mxGeometry relative="1" as="geometry" />
        </mxCell>
        <mxCell id="UyUfyXNW2C0ylXCqxiXc-44" value="Http" style="edgeLabel;html=1;align=center;verticalAlign=middle;resizable=0;points=[];fontSize=16;" vertex="1" connectable="0" parent="UyUfyXNW2C0ylXCqxiXc-15">
          <mxGeometry x="0.2267" relative="1" as="geometry">
            <mxPoint x="-10" y="1" as="offset" />
          </mxGeometry>
        </mxCell>
        <mxCell id="UyUfyXNW2C0ylXCqxiXc-16" style="rounded=0;orthogonalLoop=1;jettySize=auto;html=1;entryX=1;entryY=0.5;entryDx=0;entryDy=0;edgeStyle=orthogonalEdgeStyle;curved=1;" edge="1" parent="UyUfyXNW2C0ylXCqxiXc-4">
          <mxGeometry relative="1" as="geometry">
            <mxPoint x="220" y="221" as="sourcePoint" />
            <mxPoint x="280" y="61" as="targetPoint" />
            <Array as="points">
              <mxPoint x="220" y="181" />
              <mxPoint x="300" y="181" />
              <mxPoint x="300" y="61" />
            </Array>
          </mxGeometry>
        </mxCell>
        <mxCell id="UyUfyXNW2C0ylXCqxiXc-43" value="Http" style="edgeLabel;html=1;align=center;verticalAlign=middle;resizable=0;points=[];fontSize=16;" vertex="1" connectable="0" parent="UyUfyXNW2C0ylXCqxiXc-16">
          <mxGeometry x="-0.0319" y="8" relative="1" as="geometry">
            <mxPoint x="-2" y="-75" as="offset" />
          </mxGeometry>
        </mxCell>
        <mxCell id="UyUfyXNW2C0ylXCqxiXc-24" style="edgeStyle=orthogonalEdgeStyle;curved=1;rounded=0;orthogonalLoop=1;jettySize=auto;html=1;entryX=1;entryY=0.5;entryDx=0;entryDy=0;entryPerimeter=0;fontSize=12;startSize=8;endSize=8;" edge="1" parent="UyUfyXNW2C0ylXCqxiXc-4" source="UyUfyXNW2C0ylXCqxiXc-6" target="UyUfyXNW2C0ylXCqxiXc-64">
          <mxGeometry relative="1" as="geometry">
            <mxPoint x="84" y="150" as="targetPoint" />
          </mxGeometry>
        </mxCell>
        <mxCell id="UyUfyXNW2C0ylXCqxiXc-42" value="Https" style="edgeLabel;html=1;align=center;verticalAlign=middle;resizable=0;points=[];fontSize=16;" vertex="1" connectable="0" parent="UyUfyXNW2C0ylXCqxiXc-24">
          <mxGeometry x="-0.2094" y="-5" relative="1" as="geometry">
            <mxPoint as="offset" />
          </mxGeometry>
        </mxCell>
        <mxCell id="UyUfyXNW2C0ylXCqxiXc-6" value="Tunnel Cloudflare" style="rounded=1;whiteSpace=wrap;html=1;" vertex="1" parent="UyUfyXNW2C0ylXCqxiXc-4">
          <mxGeometry x="160" y="220" width="120" height="60" as="geometry" />
        </mxCell>
        <mxCell id="UyUfyXNW2C0ylXCqxiXc-21" value="Reseau Local" style="text;html=1;align=center;verticalAlign=middle;resizable=0;points=[];autosize=1;strokeColor=none;fillColor=none;fontSize=16;" vertex="1" parent="UyUfyXNW2C0ylXCqxiXc-4">
          <mxGeometry width="120" height="30" as="geometry" />
        </mxCell>
        <mxCell id="UyUfyXNW2C0ylXCqxiXc-23" style="edgeStyle=orthogonalEdgeStyle;curved=1;rounded=0;orthogonalLoop=1;jettySize=auto;html=1;entryX=0.451;entryY=-0.007;entryDx=0;entryDy=0;fontSize=12;startSize=8;endSize=8;entryPerimeter=0;exitX=0.437;exitY=-0.046;exitDx=0;exitDy=0;exitPerimeter=0;" edge="1" parent="UyUfyXNW2C0ylXCqxiXc-4" source="UyUfyXNW2C0ylXCqxiXc-64" target="UyUfyXNW2C0ylXCqxiXc-4">
          <mxGeometry relative="1" as="geometry">
            <mxPoint x="52.02857142857147" y="125" as="sourcePoint" />
            <Array as="points">
              <mxPoint x="42" y="105" />
              <mxPoint x="140" y="105" />
            </Array>
          </mxGeometry>
        </mxCell>
        <mxCell id="UyUfyXNW2C0ylXCqxiXc-41" value="Https" style="edgeLabel;html=1;align=center;verticalAlign=middle;resizable=0;points=[];fontSize=16;" vertex="1" connectable="0" parent="UyUfyXNW2C0ylXCqxiXc-23">
          <mxGeometry x="-0.1501" y="15" relative="1" as="geometry">
            <mxPoint as="offset" />
          </mxGeometry>
        </mxCell>
        <mxCell id="UyUfyXNW2C0ylXCqxiXc-64" value="ISP Router" style="sketch=0;points=[[0.5,0,0],[1,0.5,0],[0.5,1,0],[0,0.5,0],[0.145,0.145,0],[0.8555,0.145,0],[0.855,0.8555,0],[0.145,0.855,0]];verticalLabelPosition=bottom;html=1;verticalAlign=top;aspect=fixed;align=center;pointerEvents=1;shape=mxgraph.cisco19.rect;prIcon=router_with_firewall;fillColor=#FAFAFA;strokeColor=#005073;" vertex="1" parent="UyUfyXNW2C0ylXCqxiXc-4">
          <mxGeometry x="20" y="120" width="50" height="50" as="geometry" />
        </mxCell>
        <mxCell id="UyUfyXNW2C0ylXCqxiXc-10" style="edgeStyle=orthogonalEdgeStyle;rounded=0;orthogonalLoop=1;jettySize=auto;html=1;entryX=0.875;entryY=0.5;entryDx=0;entryDy=0;entryPerimeter=0;curved=1;" edge="1" parent="1" source="UyUfyXNW2C0ylXCqxiXc-9" target="UyUfyXNW2C0ylXCqxiXc-1">
          <mxGeometry relative="1" as="geometry" />
        </mxCell>
        <mxCell id="UyUfyXNW2C0ylXCqxiXc-46" value="Https" style="edgeLabel;html=1;align=center;verticalAlign=middle;resizable=0;points=[];fontSize=16;" vertex="1" connectable="0" parent="UyUfyXNW2C0ylXCqxiXc-10">
          <mxGeometry x="-0.2581" y="-1" relative="1" as="geometry">
            <mxPoint x="-6" y="6" as="offset" />
          </mxGeometry>
        </mxCell>
        <mxCell id="UyUfyXNW2C0ylXCqxiXc-9" value="Client" style="sketch=0;outlineConnect=0;fontColor=#232F3E;gradientColor=none;fillColor=#232F3D;strokeColor=none;dashed=0;verticalLabelPosition=bottom;verticalAlign=top;align=center;html=1;fontSize=12;fontStyle=0;aspect=fixed;pointerEvents=1;shape=mxgraph.aws4.mobile_client;" vertex="1" parent="1">
          <mxGeometry x="780" y="160" width="41" height="78" as="geometry" />
        </mxCell>
        <mxCell id="UyUfyXNW2C0ylXCqxiXc-62" style="edgeStyle=orthogonalEdgeStyle;rounded=0;orthogonalLoop=1;jettySize=auto;html=1;entryX=0.5;entryY=0;entryDx=0;entryDy=0;entryPerimeter=0;curved=1;" edge="1" parent="1" source="UyUfyXNW2C0ylXCqxiXc-27" target="UyUfyXNW2C0ylXCqxiXc-61">
          <mxGeometry relative="1" as="geometry" />
        </mxCell>
        <mxCell id="UyUfyXNW2C0ylXCqxiXc-63" value="Https" style="edgeLabel;html=1;align=center;verticalAlign=middle;resizable=0;points=[];" vertex="1" connectable="0" parent="UyUfyXNW2C0ylXCqxiXc-62">
          <mxGeometry x="-0.2862" y="-3" relative="1" as="geometry">
            <mxPoint x="3" y="-2" as="offset" />
          </mxGeometry>
        </mxCell>
        <mxCell id="UyUfyXNW2C0ylXCqxiXc-27" value="Internet" style="ellipse;shape=cloud;whiteSpace=wrap;html=1;" vertex="1" parent="1">
          <mxGeometry x="100" y="180" width="120" height="80" as="geometry" />
        </mxCell>
        <mxCell id="UyUfyXNW2C0ylXCqxiXc-30" value="" style="swimlane;startSize=0;comic=0;treeMoving=0;" vertex="1" parent="1">
          <mxGeometry x="80" y="300" width="310" height="300" as="geometry">
            <mxRectangle x="460" y="260" width="50" height="40" as="alternateBounds" />
          </mxGeometry>
        </mxCell>
        <mxCell id="UyUfyXNW2C0ylXCqxiXc-31" value="Ngnix" style="rounded=1;whiteSpace=wrap;html=1;" vertex="1" parent="UyUfyXNW2C0ylXCqxiXc-30">
          <mxGeometry x="160" y="30" width="120" height="60" as="geometry" />
        </mxCell>
        <mxCell id="UyUfyXNW2C0ylXCqxiXc-32" value="Clever-Party-Thrower Api" style="rounded=1;whiteSpace=wrap;html=1;" vertex="1" parent="UyUfyXNW2C0ylXCqxiXc-30">
          <mxGeometry x="160" y="110" width="120" height="60" as="geometry" />
        </mxCell>
        <mxCell id="UyUfyXNW2C0ylXCqxiXc-33" style="edgeStyle=orthogonalEdgeStyle;rounded=0;orthogonalLoop=1;jettySize=auto;html=1;curved=1;" edge="1" parent="UyUfyXNW2C0ylXCqxiXc-30" source="UyUfyXNW2C0ylXCqxiXc-36" target="UyUfyXNW2C0ylXCqxiXc-32">
          <mxGeometry relative="1" as="geometry" />
        </mxCell>
        <mxCell id="UyUfyXNW2C0ylXCqxiXc-60" value="Http" style="edgeLabel;html=1;align=center;verticalAlign=middle;resizable=0;points=[];fontSize=16;" vertex="1" connectable="0" parent="UyUfyXNW2C0ylXCqxiXc-33">
          <mxGeometry x="-0.3818" y="2" relative="1" as="geometry">
            <mxPoint x="-18" y="-3" as="offset" />
          </mxGeometry>
        </mxCell>
        <mxCell id="UyUfyXNW2C0ylXCqxiXc-34" style="rounded=0;orthogonalLoop=1;jettySize=auto;html=1;entryX=1;entryY=0.5;entryDx=0;entryDy=0;edgeStyle=orthogonalEdgeStyle;curved=1;exitX=0.75;exitY=0;exitDx=0;exitDy=0;" edge="1" parent="UyUfyXNW2C0ylXCqxiXc-30" source="UyUfyXNW2C0ylXCqxiXc-36" target="UyUfyXNW2C0ylXCqxiXc-31">
          <mxGeometry relative="1" as="geometry">
            <Array as="points">
              <mxPoint x="260" y="212" />
              <mxPoint x="240" y="212" />
              <mxPoint x="240" y="180" />
              <mxPoint x="300" y="180" />
              <mxPoint x="300" y="60" />
            </Array>
          </mxGeometry>
        </mxCell>
        <mxCell id="UyUfyXNW2C0ylXCqxiXc-59" value="Http" style="edgeLabel;html=1;align=center;verticalAlign=middle;resizable=0;points=[];fontSize=16;" vertex="1" connectable="0" parent="UyUfyXNW2C0ylXCqxiXc-34">
          <mxGeometry x="0.2356" y="1" relative="1" as="geometry">
            <mxPoint x="-9" y="-31" as="offset" />
          </mxGeometry>
        </mxCell>
        <mxCell id="UyUfyXNW2C0ylXCqxiXc-36" value="Traefik" style="rounded=1;whiteSpace=wrap;html=1;" vertex="1" parent="UyUfyXNW2C0ylXCqxiXc-30">
          <mxGeometry x="170" y="215" width="120" height="60" as="geometry" />
        </mxCell>
        <mxCell id="UyUfyXNW2C0ylXCqxiXc-48" style="edgeStyle=none;curved=1;rounded=0;orthogonalLoop=1;jettySize=auto;html=1;entryX=0.5;entryY=0;entryDx=0;entryDy=0;fontSize=12;startSize=8;endSize=8;exitX=0.5;exitY=1;exitDx=0;exitDy=0;exitPerimeter=0;" edge="1" parent="UyUfyXNW2C0ylXCqxiXc-30" source="UyUfyXNW2C0ylXCqxiXc-61" target="UyUfyXNW2C0ylXCqxiXc-97">
          <mxGeometry relative="1" as="geometry">
            <mxPoint x="86.40000000000009" y="95" as="sourcePoint" />
            <Array as="points">
              <mxPoint x="120" y="50" />
              <mxPoint x="80" y="130" />
            </Array>
          </mxGeometry>
        </mxCell>
        <mxCell id="UyUfyXNW2C0ylXCqxiXc-53" value="Https" style="edgeLabel;html=1;align=center;verticalAlign=middle;resizable=0;points=[];fontSize=16;" vertex="1" connectable="0" parent="UyUfyXNW2C0ylXCqxiXc-48">
          <mxGeometry x="0.2518" y="22" relative="1" as="geometry">
            <mxPoint as="offset" />
          </mxGeometry>
        </mxCell>
        <mxCell id="UyUfyXNW2C0ylXCqxiXc-51" style="edgeStyle=orthogonalEdgeStyle;curved=1;rounded=0;orthogonalLoop=1;jettySize=auto;html=1;entryX=0.5;entryY=1;entryDx=0;entryDy=0;fontSize=12;startSize=8;endSize=8;comic=0;startArrow=classic;startFill=1;" edge="1" parent="UyUfyXNW2C0ylXCqxiXc-30" source="UyUfyXNW2C0ylXCqxiXc-50" target="UyUfyXNW2C0ylXCqxiXc-36">
          <mxGeometry relative="1" as="geometry" />
        </mxCell>
        <mxCell id="UyUfyXNW2C0ylXCqxiXc-50" value="CertManager" style="rounded=1;whiteSpace=wrap;html=1;" vertex="1" parent="UyUfyXNW2C0ylXCqxiXc-30">
          <mxGeometry x="20" y="235" width="120" height="60" as="geometry" />
        </mxCell>
        <mxCell id="UyUfyXNW2C0ylXCqxiXc-61" value="ISP Router" style="sketch=0;points=[[0.5,0,0],[1,0.5,0],[0.5,1,0],[0,0.5,0],[0.145,0.145,0],[0.8555,0.145,0],[0.855,0.8555,0],[0.145,0.855,0]];verticalLabelPosition=bottom;html=1;verticalAlign=top;aspect=fixed;align=center;pointerEvents=1;shape=mxgraph.cisco19.rect;prIcon=router_with_firewall;fillColor=#FAFAFA;strokeColor=#005073;" vertex="1" parent="UyUfyXNW2C0ylXCqxiXc-30">
          <mxGeometry x="30" y="15" width="50" height="50" as="geometry" />
        </mxCell>
        <mxCell id="UyUfyXNW2C0ylXCqxiXc-37" value="Reseau Local" style="text;html=1;align=center;verticalAlign=middle;resizable=0;points=[];autosize=1;strokeColor=none;fillColor=none;fontSize=16;" vertex="1" parent="UyUfyXNW2C0ylXCqxiXc-30">
          <mxGeometry x="190" width="120" height="30" as="geometry" />
        </mxCell>
        <mxCell id="UyUfyXNW2C0ylXCqxiXc-98" style="edgeStyle=orthogonalEdgeStyle;rounded=0;orthogonalLoop=1;jettySize=auto;html=1;entryX=0;entryY=0.5;entryDx=0;entryDy=0;curved=1;" edge="1" parent="UyUfyXNW2C0ylXCqxiXc-30" source="UyUfyXNW2C0ylXCqxiXc-97" target="UyUfyXNW2C0ylXCqxiXc-36">
          <mxGeometry relative="1" as="geometry" />
        </mxCell>
        <mxCell id="UyUfyXNW2C0ylXCqxiXc-100" value="Https" style="edgeLabel;html=1;align=center;verticalAlign=middle;resizable=0;points=[];" vertex="1" connectable="0" parent="UyUfyXNW2C0ylXCqxiXc-98">
          <mxGeometry x="-0.0916" y="-2" relative="1" as="geometry">
            <mxPoint x="2" y="-17" as="offset" />
          </mxGeometry>
        </mxCell>
        <mxCell id="UyUfyXNW2C0ylXCqxiXc-97" value="Metal LB" style="rounded=1;whiteSpace=wrap;html=1;" vertex="1" parent="UyUfyXNW2C0ylXCqxiXc-30">
          <mxGeometry x="20" y="140" width="120" height="60" as="geometry" />
        </mxCell>
        <mxCell id="UyUfyXNW2C0ylXCqxiXc-56" style="edgeStyle=orthogonalEdgeStyle;curved=1;rounded=0;orthogonalLoop=1;jettySize=auto;html=1;fontSize=12;startSize=8;endSize=8;" edge="1" parent="1" source="UyUfyXNW2C0ylXCqxiXc-55" target="UyUfyXNW2C0ylXCqxiXc-27">
          <mxGeometry relative="1" as="geometry" />
        </mxCell>
        <mxCell id="UyUfyXNW2C0ylXCqxiXc-58" value="Https" style="edgeLabel;html=1;align=center;verticalAlign=middle;resizable=0;points=[];fontSize=16;" vertex="1" connectable="0" parent="UyUfyXNW2C0ylXCqxiXc-56">
          <mxGeometry x="-0.252" y="1" relative="1" as="geometry">
            <mxPoint x="-6" y="-2" as="offset" />
          </mxGeometry>
        </mxCell>
        <mxCell id="UyUfyXNW2C0ylXCqxiXc-55" value="Client" style="sketch=0;outlineConnect=0;fontColor=#232F3E;gradientColor=none;fillColor=#232F3D;strokeColor=none;dashed=0;verticalLabelPosition=bottom;verticalAlign=top;align=center;html=1;fontSize=12;fontStyle=0;aspect=fixed;pointerEvents=1;shape=mxgraph.aws4.mobile_client;" vertex="1" parent="1">
          <mxGeometry x="309.5" y="182" width="41" height="78" as="geometry" />
        </mxCell>
        <mxCell id="UyUfyXNW2C0ylXCqxiXc-67" value="" style="swimlane;startSize=0;" vertex="1" parent="1">
          <mxGeometry x="209.5" y="718" width="180.5" height="122" as="geometry">
            <mxRectangle x="220" y="720" width="50" height="40" as="alternateBounds" />
          </mxGeometry>
        </mxCell>
        <mxCell id="UyUfyXNW2C0ylXCqxiXc-69" value="Master Node *3&amp;nbsp;" style="text;html=1;align=center;verticalAlign=middle;resizable=0;points=[];autosize=1;strokeColor=none;fillColor=none;" vertex="1" parent="UyUfyXNW2C0ylXCqxiXc-67">
          <mxGeometry x="-10" width="110" height="30" as="geometry" />
        </mxCell>
        <mxCell id="UyUfyXNW2C0ylXCqxiXc-83" value="" style="swimlane;startSize=0;" vertex="1" parent="1">
          <mxGeometry x="210" y="890" width="190" height="110" as="geometry">
            <mxRectangle x="220" y="720" width="50" height="40" as="alternateBounds" />
          </mxGeometry>
        </mxCell>
        <mxCell id="UyUfyXNW2C0ylXCqxiXc-84" value="Worker Node * 7" style="text;html=1;align=center;verticalAlign=middle;resizable=0;points=[];autosize=1;strokeColor=none;fillColor=none;" vertex="1" parent="UyUfyXNW2C0ylXCqxiXc-83">
          <mxGeometry x="-0.5" width="110" height="30" as="geometry" />
        </mxCell>
        <mxCell id="UyUfyXNW2C0ylXCqxiXc-88" style="edgeStyle=orthogonalEdgeStyle;rounded=0;orthogonalLoop=1;jettySize=auto;html=1;entryX=0.5;entryY=0;entryDx=0;entryDy=0;" edge="1" parent="1" source="UyUfyXNW2C0ylXCqxiXc-87" target="UyUfyXNW2C0ylXCqxiXc-67">
          <mxGeometry relative="1" as="geometry" />
        </mxCell>
        <mxCell id="UyUfyXNW2C0ylXCqxiXc-87" value="KubeVip&lt;br&gt;Vip + LB" style="rounded=1;whiteSpace=wrap;html=1;" vertex="1" parent="1">
          <mxGeometry x="239.75" y="620" width="120" height="60" as="geometry" />
        </mxCell>
        <mxCell id="UyUfyXNW2C0ylXCqxiXc-96" value="Cloudflare" style="shape=image;verticalLabelPosition=bottom;labelBackgroundColor=default;verticalAlign=top;aspect=fixed;imageAspect=0;image=https://upload.wikimedia.org/wikipedia/commons/thumb/9/94/Cloudflare_Logo.png/480px-Cloudflare_Logo.png;" vertex="1" parent="1">
          <mxGeometry x="520" y="180" width="60" height="60" as="geometry" />
        </mxCell>
      </root>
    </mxGraphModel>
  </diagram>
</mxfile>
